{
	"asset":{
		"generator":"Khronos glTF Blender I/O v5.0.21",
		"version":"2.0"
	},
	"scene":0,
	"scenes":[
		{
			"name":"Stone-Tower001",
			"nodes":[
				0,
				1,
				2
			]
		}
	],
	"nodes":[
		{
			"extras":{
				"collider":"TrimeshFromMesh"
			},
			"mesh":0,
			"name":"Entrance"
		},
		{
			"extras":{
				"stone-tower-collider":"TrimeshFromMesh"
			},
			"mesh":1,
			"name":"Tower"
		},
		{
			"extras":{
				"collider":"TrimeshFromMesh"
			},
			"mesh":2,
			"name":"EntranceStairs"
		}
	],
	"meshes":[
		{
			"extras":{
				"Entrance-Collider":"TrimeshFromMesh"
			},
			"name":"Entrance_Mesh",
			"primitives":[
				{
					"attributes":{
						"POSITION":0,
						"NORMAL":1,
						"TEXCOORD_0":2
					},
					"indices":3
				}
			]
		},
		{
			"extras":{
				"Stone-Tower-Collider":"TrimeshFromMesh"
			},
			"name":"Tower_Mesh",
			"primitives":[
				{
					"attributes":{
						"POSITION":4,
						"NORMAL":5,
						"TEXCOORD_0":6
					},
					"indices":7
				}
			]
		},
		{
			"extras":{
				"EntranceStairs-Collider":"TrimeshFromMesh"
			},
			"name":"EntranceStairs_Mesh",
			"primitives":[
				{
					"attributes":{
						"POSITION":8,
						"NORMAL":9,
						"TEXCOORD_0":10
					},
					"indices":11
				}
			]
		}
	],
	"accessors":[
		{
			"bufferView":0,
			"componentType":5126,
			"count":367,
			"max":[
				0.6111470460891724,
				2.707247257232666,
				2.324921131134033
			],
			"min":[
				-0.6007914543151855,
				0.502953052520752,
				1.4849066734313965
			],
			"type":"VEC3"
		},
		{
			"bufferView":1,
			"componentType":5126,
			"count":367,
			"type":"VEC3"
		},
		{
			"bufferView":2,
			"componentType":5126,
			"count":367,
			"type":"VEC2"
		},
		{
			"bufferView":3,
			"componentType":5123,
			"count":714,
			"type":"SCALAR"
		},
		{
			"bufferView":4,
			"componentType":5126,
			"count":10692,
			"max":[
				1.899999976158142,
				32.00270462036133,
				1.899999976158142
			],
			"min":[
				-1.899999976158142,
				0,
				-1.899999976158142
			],
			"type":"VEC3"
		},
		{
			"bufferView":5,
			"componentType":5126,
			"count":10692,
			"type":"VEC3"
		},
		{
			"bufferView":6,
			"componentType":5126,
			"count":10692,
			"type":"VEC2"
		},
		{
			"bufferView":7,
			"componentType":5123,
			"count":29880,
			"type":"SCALAR"
		},
		{
			"bufferView":8,
			"componentType":5126,
			"count":66,
			"max":[
				1,
				0.5022737979888916,
				5.0359601974487305
			],
			"min":[
				-1,
				0.0079302117228508,
				1.89741849899292
			],
			"type":"VEC3"
		},
		{
			"bufferView":9,
			"componentType":5126,
			"count":66,
			"type":"VEC3"
		},
		{
			"bufferView":10,
			"componentType":5126,
			"count":66,
			"type":"VEC2"
		},
		{
			"bufferView":11,
			"componentType":5123,
			"count":144,
			"type":"SCALAR"
		}
	],
	"bufferViews":[
		{
			"buffer":0,
			"byteLength":4404,
			"byteOffset":0,
			"target":34962
		},
		{
			"buffer":0,
			"byteLength":4404,
			"byteOffset":4404,
			"target":34962
		},
		{
			"buffer":0,
			"byteLength":2936,
			"byteOffset":8808,
			"target":34962
		},
		{
			"buffer":0,
			"byteLength":1428,
			"byteOffset":11744,
			"target":34963
		},
		{
			"buffer":0,
			"byteLength":128304,
			"byteOffset":13172,
			"target":34962
		},
		{
			"buffer":0,
			"byteLength":128304,
			"byteOffset":141476,
			"target":34962
		},
		{
			"buffer":0,
			"byteLength":85536,
			"byteOffset":269780,
			"target":34962
		},
		{
			"buffer":0,
			"byteLength":59760,
			"byteOffset":355316,
			"target":34963
		},
		{
			"buffer":0,
			"byteLength":792,
			"byteOffset":415076,
			"target":34962
		},
		{
			"buffer":0,
			"byteLength":792,
			"byteOffset":415868,
			"target":34962
		},
		{
			"buffer":0,
			"byteLength":528,
			"byteOffset":416660,
			"target":34962
		},
		{
			"buffer":0,
			"byteLength":288,
			"byteOffset":417188,
			"target":34963
		}
	],
	"buffers":[
		{
			"byteLength":417476,
			"uri":"stone-tower001.bin"
		}
	]
}
