{
	"asset":{
		"generator":"Khronos glTF Blender I/O v5.0.21",
		"version":"2.0"
	},
	"scene":0,
	"scenes":[
		{
			"name":"Stone-Tower001",
			"nodes":[
				0,
				1,
				2
			]
		}
	],
	"nodes":[
		{
			"extras":{
				"collider":"TrimeshFromMesh"
			},
			"mesh":0,
			"name":"Entrance"
		},
		{
			"extras":{
				"stone-tower-collider":"TrimeshFromMesh"
			},
			"mesh":1,
			"name":"Tower"
		},
		{
			"extras":{
				"collider":"TrimeshFromMesh"
			},
			"mesh":2,
			"name":"EntranceStairs"
		}
	],
	"meshes":[
		{
			"extras":{
				"Entrance-Collider":"TrimeshFromMesh"
			},
			"name":"Entrance_Mesh",
			"primitives":[
				{
					"attributes":{
						"POSITION":0,
						"NORMAL":1,
						"TEXCOORD_0":2
					},
					"indices":3
				}
			]
		},
		{
			"extras":{
				"Stone-Tower-Collider":"TrimeshFromMesh"
			},
			"name":"Tower_Mesh",
			"primitives":[
				{
					"attributes":{
						"POSITION":4,
						"NORMAL":5,
						"TEXCOORD_0":6
					},
					"indices":7
				}
			]
		},
		{
			"extras":{
				"EntranceStairs-Collider":"TrimeshFromMesh"
			},
			"name":"EntranceStairs_Mesh",
			"primitives":[
				{
					"attributes":{
						"POSITION":8,
						"NORMAL":9,
						"TEXCOORD_0":10
					},
					"indices":11
				}
			]
		}
	],
	"accessors":[
		{
			"bufferView":0,
			"componentType":5126,
			"count":367,
			"max":[
				2.4445881843566895,
				10.828989028930664,
				9.299684524536133
			],
			"min":[
				-2.403165817260742,
				2.011812210083008,
				5.939626693725586
			],
			"type":"VEC3"
		},
		{
			"bufferView":1,
			"componentType":5126,
			"count":367,
			"type":"VEC3"
		},
		{
			"bufferView":2,
			"componentType":5126,
			"count":367,
			"type":"VEC2"
		},
		{
			"bufferView":3,
			"componentType":5123,
			"count":714,
			"type":"SCALAR"
		},
		{
			"bufferView":4,
			"componentType":5126,
			"count":79818,
			"max":[
				8.232748985290527,
				128.55209350585938,
				8.258976936340332
			],
			"min":[
				-8.185997009277344,
				-0.5258792638778687,
				-8.226213455200195
			],
			"type":"VEC3"
		},
		{
			"bufferView":5,
			"componentType":5126,
			"count":79818,
			"type":"VEC3"
		},
		{
			"bufferView":6,
			"componentType":5126,
			"count":79818,
			"type":"VEC2"
		},
		{
			"bufferView":7,
			"componentType":5125,
			"count":147360,
			"type":"SCALAR"
		},
		{
			"bufferView":8,
			"componentType":5126,
			"count":66,
			"max":[
				4,
				2.0090951919555664,
				20.143840789794922
			],
			"min":[
				-4,
				0.0317208468914032,
				7.58967399597168
			],
			"type":"VEC3"
		},
		{
			"bufferView":9,
			"componentType":5126,
			"count":66,
			"type":"VEC3"
		},
		{
			"bufferView":10,
			"componentType":5126,
			"count":66,
			"type":"VEC2"
		},
		{
			"bufferView":11,
			"componentType":5123,
			"count":144,
			"type":"SCALAR"
		}
	],
	"bufferViews":[
		{
			"buffer":0,
			"byteLength":4404,
			"byteOffset":0,
			"target":34962
		},
		{
			"buffer":0,
			"byteLength":4404,
			"byteOffset":4404,
			"target":34962
		},
		{
			"buffer":0,
			"byteLength":2936,
			"byteOffset":8808,
			"target":34962
		},
		{
			"buffer":0,
			"byteLength":1428,
			"byteOffset":11744,
			"target":34963
		},
		{
			"buffer":0,
			"byteLength":957816,
			"byteOffset":13172,
			"target":34962
		},
		{
			"buffer":0,
			"byteLength":957816,
			"byteOffset":970988,
			"target":34962
		},
		{
			"buffer":0,
			"byteLength":638544,
			"byteOffset":1928804,
			"target":34962
		},
		{
			"buffer":0,
			"byteLength":589440,
			"byteOffset":2567348,
			"target":34963
		},
		{
			"buffer":0,
			"byteLength":792,
			"byteOffset":3156788,
			"target":34962
		},
		{
			"buffer":0,
			"byteLength":792,
			"byteOffset":3157580,
			"target":34962
		},
		{
			"buffer":0,
			"byteLength":528,
			"byteOffset":3158372,
			"target":34962
		},
		{
			"buffer":0,
			"byteLength":288,
			"byteOffset":3158900,
			"target":34963
		}
	],
	"buffers":[
		{
			"byteLength":3159188,
			"uri":"stone-tower001.bin"
		}
	]
}
